<?xml version="1.0"?>
<svg xmlns="http://www.w3.org/2000/svg" xmlns:xlink="http://www.w3.org/1999/xlink" xmlns:svgjs="http://svgjs.com/svgjs" version="1.1" width="512" height="512" x="0" y="0" viewBox="0 0 512 512" style="enable-background:new 0 0 512 512" xml:space="preserve" class=""><g><g xmlns="http://www.w3.org/2000/svg"><path d="m467 165.999h-272c-24.814 0-45 20.186-45 45v150c0 24.814 20.186 45 45 45h235.789l55.605 55.605c4.33 4.33 10.82 5.559 16.348 3.252 5.61-2.314 9.258-7.793 9.258-13.857v-240c0-24.814-20.186-45-45-45zm-75 165h-122c-8.291 0-15-6.709-15-15s6.709-15 15-15h122c8.291 0 15 6.709 15 15s-6.709 15-15 15zm30-60h-182c-8.291 0-15-6.709-15-15s6.709-15 15-15h182c8.291 0 15 6.709 15 15s-6.709 15-15 15z" fill="#ffffff" data-original="#000000" style="" class=""/><path d="m9.258 344.856c5.528 2.307 12.017 1.078 16.348-3.252l55.605-55.605h38.789v-75c0-41.353 33.647-75 75-75h167v-45c0-24.853-20.147-45-45-45h-272c-24.853 0-45 20.147-45 45v240c0 6.064 3.647 11.543 9.258 13.857z" fill="#ffffff" data-original="#000000" style="" class=""/></g></g></svg>
